<svg width="174" height="50" viewBox="0 0 174 50" fill="none" xmlns="http://www.w3.org/2000/svg">
<path d="M165.081 15.9285C165.801 18.9523 166.309 22.0187 166.647 25.0426L164.827 26.0221C164.489 22.8279 163.981 19.6337 163.262 16.4821C163.262 16.4395 163.219 16.3969 163.219 16.3543C163.05 15.6729 163.304 15.1618 163.812 15.0341C164.15 15.1193 164.489 15.2044 164.785 15.3322C164.912 15.4174 164.997 15.6303 165.081 15.9285ZM6.2207 15.46H3.42773C2.53906 16.3118 1.73503 17.2061 0.93099 18.1431V21.1244C2.53906 19.0801 4.27409 17.2061 6.2207 15.46ZM10.918 21.5503V18.9523C6.6862 22.615 3.38542 26.8739 0.93099 31.6865V36.2436C3.08919 30.707 6.38997 25.7666 10.918 21.5503ZM168.424 24.063L170.202 23.0835C169.99 21.2947 169.694 19.506 169.313 17.7598C168.594 17.2061 167.874 16.6951 167.07 16.2692C167.663 18.8245 168.128 21.4225 168.424 24.063ZM23.4017 16.7802C23.7402 16.4821 23.7826 15.971 23.5286 15.5877C23.4863 15.5451 23.444 15.5026 23.444 15.46H22.0052C21.9629 15.46 21.9629 15.5026 21.9206 15.5026C20.6934 16.3969 19.4661 17.2487 18.2389 18.1431V20.5281C19.7624 19.4208 21.2858 18.356 22.8092 17.2487C22.9785 17.0784 23.1901 16.9506 23.4017 16.7802ZM6.77083 0.468484C6.51693 0.425894 6.2207 0.383305 5.92448 0.383305C2.91992 0.383305 0.380859 2.72572 0 5.6644C1.56576 4.30153 3.21615 3.02385 4.86654 1.83135C5.5013 1.36286 6.13607 0.936968 6.77083 0.468484ZM8.37891 18.6542C9.09831 17.9727 9.86003 17.3339 10.6217 16.6525C10.7487 16.5673 10.8333 16.4395 10.918 16.3118V15.5877C10.8757 15.5451 10.8757 15.5026 10.8333 15.46H9.14062C5.9668 18.1431 3.21615 21.0818 0.93099 24.3186V27.7683C2.96224 24.4463 5.45898 21.4225 8.37891 18.6542ZM153.867 37.0102L153.698 37.0954C153.529 41.0136 152.979 44.8467 152.09 48.5945C152.682 48.8501 153.275 49.063 153.867 49.2334C154.629 46.0818 155.137 42.845 155.391 39.523C154.756 38.9267 154.248 38.075 153.867 37.0102ZM11.8913 6.17547C11.849 5.49404 11.722 4.81261 11.4681 4.17377C10.0293 5.19591 8.59049 6.21806 7.15169 7.28279C5.45898 8.51789 3.89323 9.83816 2.36979 11.2436C2.91992 11.6695 3.51237 11.9676 4.14714 12.1806C4.52799 11.8399 4.90885 11.4991 5.33203 11.1584C7.4056 9.41227 9.64844 7.75128 11.8913 6.17547ZM18.1966 15.46V15.7581C18.3236 15.6729 18.4928 15.5451 18.6198 15.46H18.1966ZM11.3411 8.94378C10.1986 9.79557 9.05599 10.6474 7.91341 11.4991C7.53255 11.7973 7.15169 12.0954 6.77083 12.4361C8.80208 12.138 10.5371 10.7751 11.3411 8.94378ZM10.918 24.1908C5.92448 29.3441 2.6237 35.3918 1.1849 41.7376C1.10026 42.121 1.01562 42.4617 0.973307 42.8024V49.0204H2.03125C2.53906 40.6729 5.5013 33.3049 10.9603 27.0443V24.1908H10.918ZM10.4525 2.51278C10.0293 2.04429 9.5638 1.6184 9.01367 1.27768C7.87109 2.04429 6.77083 2.85349 5.67057 3.66269C3.76628 5.02555 1.94661 6.51618 0.211589 8.0494C0.380859 8.68824 0.677083 9.2845 1.05794 9.83816C1.65039 9.2845 2.28516 8.73083 2.91992 8.21976C5.28971 6.21806 7.82878 4.34412 10.4525 2.51278ZM149.889 17.9727C149.339 18.5264 148.831 19.1227 148.366 19.7615C149.382 24.063 149.932 28.322 150.016 32.5809C150.609 33.0494 151.243 33.4753 151.921 33.8586C151.921 28.6201 151.243 23.2964 149.889 17.9727ZM168.805 39.3101C168.678 41.2692 168.424 43.1857 168.213 45.1022C168.128 45.7411 168.424 46.2095 168.932 46.3373C169.44 46.4651 169.99 46.1244 170.075 45.5281C170.16 44.9319 170.244 44.293 170.329 43.6968C170.794 39.8211 170.964 36.0307 170.921 32.2402C170.329 31.644 169.694 31.0903 168.975 30.6644C169.059 33.5179 169.017 36.3714 168.805 39.3101ZM152.005 18.5264C152.174 19.2078 152.64 19.5486 153.19 19.4208C153.783 19.293 153.994 18.7819 153.825 18.0579C153.656 17.2913 153.444 16.5673 153.232 15.8007C152.64 16.0562 152.048 16.3543 151.497 16.6951C151.582 17.0784 151.709 17.4191 151.794 17.8024C151.878 18.0579 151.921 18.2709 152.005 18.5264ZM154.714 22.2743C154.714 22.1465 154.671 22.0187 154.629 21.891C154.46 21.4225 154.036 21.1244 153.571 21.2095C153.105 21.2947 152.767 21.7206 152.809 22.1891C152.809 22.4446 152.894 22.7428 152.936 22.9983C153.529 27.0017 153.825 30.8773 153.783 34.7104C154.417 34.9659 155.052 35.1789 155.687 35.3918C155.729 31.1755 155.433 26.7888 154.714 22.2743ZM145.615 41.7802C145.573 42.0358 145.531 42.2913 145.488 42.5468C145.954 43.3986 146.419 44.1652 147.012 44.8467C147.266 43.4412 147.52 41.9932 147.689 40.5877L145.615 41.7802ZM147.266 28.7905C147.477 29.3441 147.689 29.8552 147.985 30.3237C147.985 30.1107 147.943 29.8552 147.943 29.6422C147.9 29.2164 147.646 28.8756 147.266 28.7905ZM149.762 39.3952C149.551 41.7802 149.17 44.1227 148.662 46.5077C149.17 46.9336 149.72 47.3595 150.312 47.7002C151.032 44.5486 151.54 41.3969 151.751 38.2453L149.762 39.3952ZM156.956 43.1857C156.956 43.6968 157.295 44.0801 157.76 44.1227C158.226 44.2078 158.649 43.9097 158.776 43.3986C158.818 43.1431 158.861 42.8876 158.903 42.632C158.988 42.0784 159.03 41.5247 159.115 40.9284C158.438 40.8859 157.803 40.8007 157.253 40.5877C157.21 41.2266 157.126 41.8654 157.041 42.4617C156.999 42.7598 156.999 42.9727 156.956 43.1857ZM157.38 46.6354C156.872 46.5077 156.406 46.8058 156.279 47.3595C156.237 47.5298 156.195 47.7428 156.152 47.9131C156.025 48.5094 155.898 49.1056 155.771 49.6593C156.406 49.7871 157.041 49.8296 157.676 49.9148C157.845 49.1908 157.972 48.4668 158.141 47.7428C158.184 47.1891 157.887 46.7632 157.38 46.6354ZM161.061 40.8433C160.807 43.3135 160.469 45.8262 160.003 48.339C159.876 48.8927 159.707 49.4463 159.58 49.9574C160.215 49.9574 160.85 49.9148 161.484 49.8722C162.246 46.3373 162.796 42.845 163.092 39.3526C162.881 40.1618 162.204 40.6303 161.061 40.8433ZM159.792 14.523C159.495 14.523 159.157 14.523 158.861 14.5656C159.665 17.5043 160.299 20.4855 160.723 23.5094C161.527 23.6371 162.204 23.9779 162.796 24.4889C162.373 21.167 161.738 17.845 160.85 14.6082C160.469 14.523 160.13 14.523 159.792 14.523ZM147.604 26.1925C147.604 26.0221 147.562 25.8518 147.562 25.6814C147.435 24.7445 147.266 23.7649 147.096 22.8279C146.885 23.6797 146.8 24.5741 146.8 25.5111C146.8 26.0221 146.842 26.5332 146.885 27.0017C147.308 26.9591 147.562 26.6184 147.604 26.1925ZM10.4102 40.7581C10.5794 40.8007 10.7487 40.8433 10.8757 40.8007V37.3509C10.4948 38.075 10.1562 38.8416 9.77539 39.5656C9.77539 40.0767 9.98698 40.5877 10.4102 40.7581ZM4.52799 44.2504C4.40104 44.9319 4.65495 45.4003 5.20508 45.5281C5.75521 45.6559 6.2207 45.3152 6.34766 44.6763C6.38997 44.4208 6.47461 44.1652 6.51693 43.8671C7.44792 40.0341 8.88672 36.5417 10.8757 33.3901V30.0681C8.08268 33.7734 6.09375 37.9898 4.7819 42.8024C4.73958 43.1431 4.61263 43.6968 4.52799 44.2504ZM163.516 49.6167C164.235 49.4889 164.912 49.3186 165.547 49.1056C166.816 42.5043 167.282 36.0307 166.986 29.5997C166.351 29.3015 165.674 29.0886 165.039 28.833C165.505 35.8603 164.997 42.845 163.516 49.6167ZM9.90234 42.2061C9.35221 42.0784 8.88672 42.3765 8.71745 43.0579C8.54818 43.7394 8.42122 44.4208 8.25195 45.1022C7.99805 46.4225 7.87109 47.7428 7.74414 49.0204H9.5638C9.73307 47.1891 10.0293 45.3577 10.5371 43.5264C10.7064 42.8876 10.4525 42.3765 9.90234 42.2061ZM5.03581 46.9336C4.52799 46.8484 4.0625 47.2317 3.93555 47.7853C3.93555 47.8705 3.93555 47.9983 3.89323 48.0835C3.85091 48.3816 3.85091 48.7223 3.80859 49.0204H5.75521C5.75521 48.6797 5.75521 48.3816 5.75521 48.0409C5.83984 47.4446 5.54362 47.0187 5.03581 46.9336ZM155.01 15.1618C155.898 18.356 156.576 21.6354 157.041 24.9574C157.168 24.1908 157.803 23.6797 158.776 23.4668C158.353 20.5281 157.718 17.5894 156.914 14.7359C156.237 14.8637 155.645 14.9915 155.01 15.1618ZM161.315 37.1806C162.331 37.6065 163.008 38.075 163.092 38.7564C163.346 35.2215 163.389 31.7291 163.135 28.2794C162.458 28.109 161.781 27.8961 161.188 27.7683C161.442 30.8348 161.484 33.9864 161.315 37.1806ZM173.333 38.9693C173.333 37.6491 173.164 36.4991 172.826 35.477C172.783 38.2879 172.572 41.0988 172.233 43.8671C172.952 42.5043 173.333 40.8859 173.333 38.9693ZM172.741 21.7206C172.402 21.167 172.064 20.6133 171.683 20.1448C171.81 20.8262 171.895 21.4651 171.979 22.1465L172.741 21.7206ZM157.549 36.0307C158.226 36.201 158.861 36.414 159.453 36.5843C159.58 33.4327 159.495 30.2811 159.199 27.1721C158.184 26.8313 157.422 26.4055 157.126 25.8518C157.549 29.1738 157.676 32.5809 157.549 36.0307ZM112.057 28.6627C112.692 28.8331 113.242 28.1516 113.031 27.2998C112.184 24.2334 110.788 21.4225 108.757 18.9097L108.714 18.8671V22.1039C109.814 23.8501 110.618 25.724 111.169 27.6831C111.253 28.109 111.423 28.4923 112.057 28.6627ZM91.9141 15.6303C93.8184 15.8007 95.638 16.2692 97.4154 17.0784C99.1081 17.845 100.589 18.7819 101.859 19.8893V17.4191C99.0658 15.3748 95.7226 14.1397 91.9141 13.7138V15.6303ZM91.9141 11.8399C93.776 11.9676 95.638 12.3509 97.4577 12.9898C99.0658 13.586 100.505 14.3101 101.901 15.1618V12.9046C98.9388 11.201 95.638 10.1789 91.9564 9.92334V11.8399H91.9141ZM118.659 15.46H117.982C118.193 15.8007 118.447 16.184 118.659 16.5247V15.46ZM97.2461 23.5945C96.7806 23.2112 96.2305 23.3816 95.8919 23.8075C95.5957 24.2334 95.6803 24.7445 96.1035 25.1278C96.1881 25.2129 96.3151 25.2981 96.3997 25.3407C99.9121 28.0238 101.393 32.6235 100.081 36.8399C98.8965 40.6729 95.7227 43.4412 91.8717 44.0801V45.9966C96.4844 45.2726 100.208 42.2061 101.816 37.4361V29.77C101.266 28.2794 100.42 26.7888 99.235 25.4259C98.6849 24.7445 97.9655 24.1482 97.2461 23.5945ZM101.859 4.4293C99.2773 3.40715 96.5267 2.72572 93.6068 2.38501C93.0143 2.29983 92.4642 2.25724 91.8717 2.25724V4.17377C95.3418 4.38671 98.6849 5.15332 101.816 6.55877V4.4293H101.859ZM101.859 0.383305C101.478 0.255537 101.139 0.127768 100.758 0H91.8717V0.298126C95.2995 0.468484 98.6003 1.1925 101.816 2.4276V0.383305H101.859ZM91.9141 8.00681C94.0723 8.17717 96.2305 8.56048 98.3463 9.2845C99.5736 9.71039 100.758 10.2215 101.859 10.7751V8.60307C98.8542 7.19762 95.5111 6.34583 91.9141 6.09029V8.00681ZM91.9141 17.5894V19.506C94.7493 19.8467 97.3307 20.9966 99.6159 22.9983C100.505 23.7649 101.266 24.6593 101.901 25.5963V22.5724C99.3197 19.8467 95.8496 18.0153 91.9141 17.5894ZM94.8763 34.0715C95.0456 32.0698 93.903 30.1959 91.9141 29.3441V31.4736C92.5488 31.9847 92.972 32.7939 93.0143 33.6882C93.0143 34.6252 92.5911 35.4344 91.9141 35.9881V38.1601C93.5221 37.5213 94.707 35.9455 94.8763 34.0715ZM96.442 29.3015C96.8652 28.8756 96.8229 28.322 96.3151 27.8109C95.1302 26.5332 93.6914 25.724 91.8717 25.2981V27.2998C93.0143 27.598 94.0299 28.2368 94.9609 29.1738C95.4687 29.6422 96.0189 29.6848 96.442 29.3015ZM83.3236 38.8842C83.4082 38.8842 83.4928 38.8416 83.6198 38.8416L80.8268 37.2232C80.6575 37.2232 80.4883 37.2658 80.319 37.2658C79.7266 37.3509 79.1341 37.3935 78.5417 37.4787C77.2721 39.0971 75.1986 40.0341 72.8288 40.0341C71.5592 40.0341 70.3743 39.7359 69.3164 39.2249C65.6771 40.1618 62.1647 41.3543 58.6947 42.8876C59.0755 43.4412 59.4987 43.9523 59.9642 44.4208C62.7572 43.2283 65.6348 42.2061 68.597 41.3969C73.3789 40.1192 78.2878 39.2675 83.3236 38.8842ZM101.097 42.8876C98.6426 45.7836 95.5534 47.4872 91.9141 47.9557V49.063H95.5111C97.1615 48.5094 98.7272 47.6576 100.166 46.4651C100.758 45.954 101.309 45.4003 101.859 44.8467V42.2913C101.689 42.3339 101.52 42.4617 101.393 42.5894C101.266 42.6746 101.182 42.8024 101.097 42.8876ZM98.4733 35.5622C98.7695 34.1141 98.7272 32.6661 98.304 31.2181C98.0501 30.4515 97.2884 30.1959 96.7383 30.707C96.3574 31.0477 96.3997 31.431 96.5267 31.8995C97.5423 35.6474 95.4264 39.2249 91.9141 40.2044V42.1635C95.1725 41.4821 97.7539 38.9267 98.4733 35.5622ZM99.7428 49.063H101.859V47.5298C101.732 47.615 101.647 47.7428 101.52 47.8279C100.97 48.2964 100.335 48.6797 99.7428 49.063ZM94.8763 23.2112C95.0456 22.7002 94.7917 22.1891 94.2415 21.9761C93.4798 21.7206 92.7181 21.4651 91.9141 21.3799V23.339C92.5065 23.4242 93.0566 23.5945 93.6491 23.8075C94.1992 23.9353 94.707 23.7223 94.8763 23.2112ZM130.635 19.9744V28.2794C131.523 34.9659 130.804 41.6951 128.477 47.9983C129.323 47.402 130.042 46.7206 130.635 45.9114V47.5724C133.682 38.7564 133.682 29.5571 130.635 19.9744ZM140.579 15.46H139.141C139.691 16.908 140.156 18.3986 140.579 19.8893V15.46ZM132.835 20.5281C133.047 21.2095 133.512 21.5077 134.062 21.3373C134.613 21.167 134.824 20.6559 134.655 19.9319C134.189 18.3986 133.639 16.908 133.047 15.4174H130.973C131.693 17.0358 132.285 18.6542 132.835 20.3578C132.835 20.4429 132.835 20.4855 132.835 20.5281ZM128.561 40.0767C128.604 39.8211 128.604 39.6082 128.519 39.4378C127.969 39.9063 127.292 40.247 126.572 40.46C126.53 40.8007 126.445 41.1414 126.403 41.4395C125.811 44.3782 124.837 47.1891 123.61 49.8296C124.414 49.7019 125.176 49.5315 125.895 49.276C126.784 47.1891 127.503 44.9744 128.011 42.7172C128.223 41.8228 128.392 40.9284 128.561 40.0767ZM118.659 20.3578C117.855 18.6968 116.839 17.0358 115.697 15.46H113.327C115.824 18.6968 117.643 22.402 118.659 26.4055V20.3578ZM137.152 15.46H135.036C139.521 26.448 139.818 37.6491 136.094 49.063H138.125C138.59 47.5724 139.014 46.0392 139.352 44.4634C141.383 34.2419 140.706 24.5741 137.152 15.46ZM136.305 27.7683C136.094 26.2777 135.798 24.7871 135.501 23.2964C135.374 22.6576 134.909 22.3169 134.359 22.4446C133.809 22.5724 133.555 23.0409 133.682 23.7223C133.724 23.8927 133.766 24.0204 133.766 24.1908C135.586 32.7087 134.909 41.3118 132.116 49.063H134.105C134.697 47.3595 135.205 45.6133 135.586 43.7819C136.771 38.586 137.025 33.0494 136.305 27.7683ZM140.579 47.9557C140.495 48.0409 140.41 48.1687 140.368 48.2964C140.283 48.4668 140.241 48.6797 140.199 48.8927C140.199 48.9779 140.156 49.0204 140.156 49.1056H140.622V47.9557H140.579ZM108.714 26.3629V36.0733C108.714 37.4787 108.841 38.7564 109.095 39.9489C109.264 39.3952 109.434 38.8416 109.561 38.2453C110.449 34.029 110.195 30.0681 108.714 26.3629ZM113.708 30.8773C113.623 30.1959 113.2 29.8126 112.65 29.8978C112.1 29.983 111.761 30.4089 111.803 31.0903C111.803 31.1755 111.803 31.2606 111.846 31.3884C112.269 35.4344 111.592 39.3952 109.984 42.8876C110.322 43.6116 110.703 44.293 111.126 44.9319C112.1 43.0579 112.861 40.971 113.327 38.799C113.919 36.201 114.046 33.2624 113.708 30.8773ZM124.456 40.7155C123.864 40.7155 123.271 40.6303 122.721 40.5026C122.087 43.6968 120.944 46.8484 119.294 49.8722C119.886 49.9574 120.521 50 121.113 50C121.198 50 121.283 50 121.325 50C122.848 46.9762 123.949 43.8671 124.583 40.7155C124.541 40.7155 124.499 40.7155 124.456 40.7155ZM110.999 18.6542C111.253 18.7819 111.634 18.9097 111.888 18.8671C112.142 18.8245 112.396 18.4838 112.692 18.2283C112.523 17.845 112.48 17.5468 112.311 17.2913C111.803 16.6525 111.338 16.0136 110.788 15.4174H108.672V15.8859C109.307 16.5673 109.899 17.2913 110.492 18.0153C110.703 18.2709 110.788 18.5264 110.999 18.6542ZM116.162 24.7019C115.612 23.0835 114.808 21.5503 114.046 20.017C113.792 19.4634 113.2 19.3356 112.734 19.5911C112.269 19.8467 112.142 20.4003 112.438 20.9114C112.523 21.0392 112.607 21.2095 112.65 21.3373C117.008 29.3015 116.755 38.8416 112.438 46.4651C112.904 46.9336 113.411 47.3595 113.919 47.7428C115.358 45.3152 116.374 42.6746 117.008 39.8637C118.109 34.5826 117.855 29.5997 116.162 24.7019ZM119.336 37.7768C118.828 41.6951 117.516 45.4429 115.57 48.7649C116.077 49.0204 116.585 49.2334 117.093 49.4037C118.743 46.5077 120.055 43.2709 120.902 39.7359C120.267 39.1823 119.717 38.586 119.336 37.7768ZM43.3333 33.5605C42.8255 33.8586 42.6562 34.4123 42.9102 34.8807C43.1641 35.3492 43.7142 35.477 44.222 35.2215C44.4336 35.1363 44.6029 35.0085 44.8145 34.8807C46.5495 33.9012 48.2845 32.9642 50.0618 32.0698V29.9404C47.8613 30.9625 45.7031 32.1124 43.5872 33.3901C43.5449 33.4327 43.418 33.4753 43.3333 33.5605ZM36.6471 24.1908C37.3242 24.4463 37.959 24.8296 38.4668 25.3407C41.5983 23.5094 44.7721 21.8484 48.1152 20.3578C47.7767 19.8041 47.3958 19.2504 47.015 18.7819C46.8034 18.8671 46.5918 18.9523 46.3802 19.0375C43.0371 20.5707 39.821 22.3169 36.6471 24.1908ZM40.0749 28.833C43.1641 27.0017 46.2956 25.3833 49.554 23.8927C49.3848 23.2538 49.1732 22.6576 48.9616 22.0613C45.7454 23.5094 42.6139 25.1278 39.5671 26.9165C39.821 27.4702 39.9902 28.109 40.0749 28.833ZM25.4329 44.293C24.9251 44.0375 24.375 44.3356 24.1211 45.017C23.7402 45.9966 23.444 46.9762 23.1055 47.9557C23.0208 48.339 22.9785 48.6797 22.9362 49.063H24.9251C25.1367 47.9557 25.4329 46.8484 25.8984 45.7411C26.1523 45.0596 25.9831 44.5486 25.4329 44.293ZM40.1172 33.2624C43.3333 31.2606 46.6764 29.4293 50.0618 27.8535C50.0618 27.1721 49.9772 26.4906 49.8926 25.8092C46.5072 27.3424 43.2487 29.0886 40.1172 31.0051V33.2624ZM27.1256 35.2641C23.1478 38.2879 20.5664 42.2487 19.6354 46.4225C19.4238 47.3169 19.2969 48.1687 19.2122 49.063H21.0742C21.5397 45.3577 23.1901 41.7376 26.0677 38.799C26.7448 38.1175 27.4642 37.5213 28.2259 36.925V34.4974C28.2259 34.4974 28.2259 34.4974 28.1836 34.4974C27.8027 34.753 27.4642 35.0085 27.1256 35.2641ZM26.8294 49.063H28.1836V45.3577C27.5911 46.4225 27.168 47.6576 26.8717 48.9353C26.8294 48.9779 26.8294 49.0204 26.8294 49.063ZM25.9831 41.7802C25.4753 42.3339 25.7292 43.1431 26.3639 43.3135C26.8294 43.4412 27.2103 43.2709 27.4642 42.8876C27.6758 42.5894 27.9297 42.2913 28.1413 42.0358V39.3526C27.3796 40.1193 26.7025 40.971 25.9831 41.7802ZM40.1172 42.3765C43.3333 40.1618 46.6341 38.1601 50.0618 36.3714V34.2419C46.6341 35.9881 43.3333 37.9472 40.1172 40.0767V42.3765ZM40.1172 44.6763V47.0187C43.3333 44.7189 46.6341 42.5894 50.0618 40.7155V38.6286C49.8926 38.6712 49.7656 38.7138 49.6387 38.799C46.3802 40.5451 43.2064 42.5468 40.1172 44.6763ZM43.9258 49.063C44.5182 48.6371 45.1107 48.2112 45.7031 47.8279C47.1419 46.8484 48.5807 45.954 50.0618 45.1022V42.9302C46.7611 44.8041 43.6296 46.8484 40.5404 49.1056H43.9258V49.063ZM50.1042 49.063V47.3169C49.1732 47.8705 48.2422 48.4668 47.3535 49.063H50.1042ZM18.1966 39.6508V44.4634C19.5931 40.3322 22.2168 36.5417 25.9831 33.7308C26.7025 33.1772 27.4219 32.6661 28.1836 32.1124V30.707C28.1836 30.3663 28.1836 30.0256 28.2259 29.7274C26.9141 30.6644 25.6445 31.6014 24.375 32.5809C21.7513 34.5826 19.6777 37.0102 18.1966 39.6508ZM28.903 17.7598C30.2572 16.8654 31.6536 16.0136 33.0501 15.2044C31.3574 15.7581 29.9186 16.6525 28.903 17.7598ZM41.7253 36.7121C42.0215 36.414 42.1061 36.0733 41.9368 35.6899C41.8099 35.3066 41.5137 35.0511 41.0905 35.0937C40.8366 35.0937 40.5404 35.2215 40.3288 35.3492C40.2441 35.3918 40.1595 35.477 40.0749 35.5196V37.8194C40.4557 37.5639 40.8366 37.3083 41.2174 37.0528C41.429 36.925 41.5983 36.8399 41.7253 36.7121ZM65.4655 48.4242C66.3965 48.8501 67.4121 49.1908 68.4277 49.4463C69.3587 49.1482 70.2897 48.8927 71.263 48.6371C75.2832 47.5724 79.3034 46.9336 83.4082 46.5503C84.2122 45.954 84.974 45.2726 85.651 44.506C84.3392 44.5911 83.0273 44.6763 81.7155 44.8041C76.0872 45.4003 70.6706 46.5503 65.4655 48.4242ZM65.4655 34.3271C65.3385 33.7308 65.2539 33.092 65.2539 32.4106C64.7884 32.5383 64.3229 32.6661 63.8997 32.8365C61.0644 33.6882 58.3138 34.7104 55.6478 35.9029C55.7747 36.5417 55.944 37.1806 56.1133 37.7768C56.2826 37.6917 56.4095 37.6491 56.5788 37.5639C59.4987 36.2436 62.4609 35.1789 65.4655 34.3271ZM66.1003 36.1158C62.9687 37.0102 59.8796 38.1175 56.875 39.4804C56.8327 39.4804 56.7904 39.523 56.748 39.523C57.002 40.1193 57.2982 40.6729 57.5944 41.2266C60.7259 39.8211 63.9421 38.6712 67.2852 37.7342C66.8197 37.2658 66.4388 36.7121 66.1003 36.1158ZM66.0156 28.6201C65.8464 28.4923 65.5924 28.4072 65.3385 28.4072C65.1693 28.4072 64.9577 28.4923 64.7884 28.5349C61.5299 29.4293 58.3561 30.5366 55.2669 31.8143C55.2669 31.9421 55.2669 32.1124 55.2669 32.2402C55.2669 32.7939 55.3092 33.3475 55.3516 33.8586C58.61 32.4532 61.9531 31.2606 65.4655 30.3237C65.5924 29.7274 65.7617 29.1312 66.0156 28.6201ZM78.584 49.063C77.0182 49.3186 75.4948 49.6167 73.929 49.9574C75.5371 49.8722 77.1029 49.5741 78.584 49.063ZM68.5547 43.3986C68.0892 43.5264 67.8353 43.8245 67.8353 44.293C67.8353 44.7189 68.0046 45.0596 68.4277 45.1874C68.6816 45.2726 68.9779 45.23 69.2741 45.1874C71.3053 44.7189 73.3366 44.2078 75.3678 43.7819C79.3034 43.0153 83.2389 42.632 87.2168 42.4191C87.4707 42.0358 87.6823 41.6951 87.8939 41.3118L86.582 40.5451C81.8001 40.8007 77.0182 41.3969 72.321 42.4191C71.0937 42.7598 69.8242 43.1005 68.5547 43.3986ZM66.8197 45.2726C66.735 45.1448 66.6927 44.8041 66.4811 44.5485C66.2272 44.2078 65.804 44.2078 65.4232 44.3782C64.1113 44.8893 62.7572 45.4003 61.4453 45.9114C61.9954 46.3799 62.5879 46.8058 63.2227 47.2317C64.1113 46.891 65.0423 46.5503 65.931 46.2521C66.3118 46.0818 66.6504 45.9114 66.8197 45.2726ZM28.1836 18.2283V15.9285C24.7559 18.1005 21.4551 20.4003 18.1966 22.8705V25.2981C20.9896 23.0835 23.9518 21.0392 26.9141 19.0375C27.3372 18.7819 27.7604 18.4838 28.1836 18.2283ZM68.6816 25.5963C69.8242 24.8722 71.2207 24.4463 72.7865 24.4463C73.252 24.4463 73.6751 24.4889 74.0983 24.5315C78.0762 23.8927 82.054 23.5094 86.1165 23.339C86.6667 23.2964 87.1745 23.2964 87.7246 23.2538L87.9785 23.1261C87.6823 22.5724 87.3014 22.0187 86.9206 21.4651C84.5085 21.5928 82.054 21.7206 79.6419 21.9336C71.4323 22.7002 63.5189 24.5315 55.944 27.4702C55.7747 28.1942 55.6055 28.9182 55.5208 29.6848C58.3984 28.5349 61.3184 27.5128 64.2806 26.7036C65.7194 26.2777 67.2005 25.937 68.6816 25.5963ZM22.0475 32.0273C24.2057 30.1533 26.5755 28.5349 28.903 26.9165C29.7917 25 31.4421 24.0204 33.5579 23.8075C37.4089 21.3799 41.429 19.1652 45.5762 17.2913C45.026 16.8228 44.3913 16.3969 43.7565 16.0562C43.4603 16.184 43.1641 16.3543 42.8678 16.4821C35.5046 20.0596 28.6491 24.4889 22.1745 29.4719C20.6934 30.6218 19.3815 31.8569 18.1966 33.1772V36.201C19.2969 34.7104 20.5664 33.3049 22.0475 32.0273ZM69.7819 21.4651C70.2474 21.3799 70.5859 21.167 70.6706 20.6985C70.7975 19.9744 70.2051 19.4208 69.401 19.5911C65.5078 20.3578 61.6569 21.3799 57.8906 22.6576C57.4251 23.4242 57.002 24.276 56.6211 25.1278C59.2025 24.1908 61.8685 23.339 64.5768 22.6576C66.3542 22.1891 68.0469 21.8484 69.7819 21.4651ZM75.4525 14.6934C71.5169 15.2044 67.6237 15.9285 63.8151 16.908C62.3763 17.7598 61.1068 18.7819 60.0065 19.9744C66.5658 17.9727 73.3366 16.6951 80.2344 16.0988C78.7109 15.4174 77.1029 14.9489 75.4525 14.6934ZM30.9342 20.9966C34.362 18.8245 37.832 16.8228 41.429 15.0767C40.4134 14.7785 39.3555 14.6082 38.2552 14.5656C31.7806 17.9727 25.6868 22.0187 19.8047 26.4906C19.2546 26.9165 18.7044 27.3424 18.1966 27.8109V30.4089C18.7467 29.8552 19.3392 29.3441 19.974 28.833C23.444 25.8944 27.168 23.4242 30.9342 20.9966ZM71.8978 20.0596C71.9824 20.6133 72.4479 20.9114 73.1673 20.8262C77.1875 20.1874 81.2077 19.8041 85.2279 19.5486C84.5508 18.8671 83.8737 18.2709 83.112 17.7172C79.6842 17.9727 76.2565 18.356 72.8711 18.9097C72.1517 19.0801 71.7708 19.506 71.8978 20.0596ZM78.9648 27.7683C79.388 27.7257 79.8112 27.6831 80.2344 27.6405L84.043 25.3833C81.8424 25.5111 79.6419 25.724 77.4414 26.0221C78.0339 26.4906 78.5417 27.0869 78.9648 27.7683Z" fill="white"/>
</svg>
